<svg xmlns="http://www.w3.org/2000/svg" version="1.1" xmlns:xlink="http://www.w3.org/1999/xlink" width="512" height="512" x="0" y="0" viewBox="0 0 512 512" style="enable-background:new 0 0 512 512" xml:space="preserve"><g><linearGradient id="a"><stop offset="0" stop-color="#1aa3ff"></stop><stop offset="1" stop-color="#0f56f6"></stop></linearGradient><linearGradient xlink:href="#a" id="b" x1="-12.91" x2="486.55" y1="488.39" y2="-11.08" gradientTransform="matrix(1 0 0 -1 0 512.02)" gradientUnits="userSpaceOnUse"></linearGradient><linearGradient xlink:href="#a" id="c" x1="5.085" x2="504.545" y1="506.385" y2="6.925" gradientTransform="matrix(1 0 0 -1 0 512.02)" gradientUnits="userSpaceOnUse"></linearGradient><linearGradient xlink:href="#a" id="d" x1="5.1" x2="504.56" y1="506.39" y2="6.93" gradientTransform="matrix(1 0 0 -1 0 512.02)" gradientUnits="userSpaceOnUse"></linearGradient><linearGradient xlink:href="#a" id="e" x1="5.05" x2="504.51" y1="506.34" y2="6.88" gradientTransform="matrix(1 0 0 -1 0 512.02)" gradientUnits="userSpaceOnUse"></linearGradient><path fill="url(#b)" d="M362.3 237.7c9.2 2.7 19.2 3.2 28.8 4.6 69.7-.9 125.2-59.4 120.6-128.5-.4-6.5-4-14.8-9-18.4-7.2-5.3-13.5 1.7-18.9 7.1-12.9 13-25.6 26.3-39.1 38.7-2.9 2.7-9.2 4.1-13 2.9-47.2-14.6-47.2-14.8-63.3-61.6-.3-.7-.6-1.6-.8-2.4s-2.9-5.1 3.3-12.9c11.2-14 25.2-25.6 37.9-38.3 5.6-5.5 13.3-11.8 7.8-19.7-3.5-4.9-11.9-8.5-18.4-8.9-81.1-5-143.8 70.7-123.9 149.5 2.1 8.4.3 13.4-5.6 19.3C186.8 250.7 105 332.4 23.4 414.3c-5 5-10 10-14 15.7-14.5 21-11.7 48.5 6.3 66.5 17.7 17.7 44.6 20.8 65.6 6.9 5.8-3.8 10.9-8.9 15.8-13.8 82.1-82 164.1-164 246-246.2 5.8-5.9 10.8-8.2 19.2-5.7z" opacity="1" data-original="url(#b)"></path><path fill="url(#c)" d="M158.2 233.3c2.7 2.7 5.5 5.2 7.4 7 25.2-25 49.4-49.2 74-73.5l.5-.5-1.8-1.9c-48-48.1-96-96.2-144.1-144.2-7.6-7.6-15.1-6.3-22.4 1C55.6 37.6 39.2 53.8 23 70.1c-11.4 11.5-11.4 16.5.2 28.1 45 45.1 90 90.1 135 135.1z" opacity="1" data-original="url(#c)"></path><path fill="url(#d)" d="M344 273.3c-23.4 23.6-47.5 47.9-70.9 71.6L373.2 445l71.5-71z" opacity="1" data-original="url(#d)"></path><path fill="url(#e)" d="M464.4 397.7c-.9-1.8-2-3.5-3.2-5l-69.1 69c2.3 1.4 4.7 2.7 7.2 3.8 23.1 9.5 46.2 18.8 69.3 28.3 8.6 3.5 16.8 4.4 23.8-2.8s6.2-15.2 2.5-23.8c-10.3-23-20.3-46.3-30.5-69.5z" opacity="1" data-original="url(#e)"></path></g></svg>
